<svg width="90" height="90" viewBox="0 0 90 90" fill="none" xmlns="http://www.w3.org/2000/svg">
<path d="M56.25 78.7497V65.6247C56.25 61.8747 56.625 60.3747 54.375 58.1247C64.875 56.9997 75 52.8747 75 35.6247C74.9954 31.1433 73.2471 26.8396 70.125 23.6247C71.5893 19.7321 71.4544 15.4183 69.75 11.6247C69.75 11.6247 65.625 10.4997 56.625 16.4997C49.0021 14.5144 40.9979 14.5144 33.375 16.4997C24.375 10.4997 20.25 11.6247 20.25 11.6247C18.5456 15.4183 18.4107 19.7321 19.875 23.6247C16.7529 26.8396 15.0046 31.1433 15 35.6247C15 52.8747 25.125 56.9997 35.625 58.1247C33.375 60.3747 33.375 62.6247 33.75 65.6247V78.7497M33.75 71.2497C17.625 76.4997 17.625 61.8747 11.25 59.9997L33.75 71.2497Z" stroke="white" stroke-width="2.75" stroke-linecap="round" stroke-linejoin="round"/>
</svg>
