<svg viewBox="0 0 88 90" fill="none" xmlns="http://www.w3.org/2000/svg">
<path d="M65.9998 15H21.9998C17.9497 15 14.6665 18.3579 14.6665 22.5V67.5C14.6665 71.6421 17.9497 75 21.9998 75H65.9998C70.0499 75 73.3332 71.6421 73.3332 67.5V22.5C73.3332 18.3579 70.0499 15 65.9998 15Z" stroke="white" stroke-width="2.75" stroke-linecap="round" stroke-linejoin="round"/>
<path d="M29.3335 41.25V60" stroke="white" stroke-width="2.75" stroke-linecap="round" stroke-linejoin="round"/>
<path d="M29.3335 30V30.0375" stroke="white" stroke-width="2.75" stroke-linecap="round" stroke-linejoin="round"/>
<path d="M44 60V41.25" stroke="white" stroke-width="2.75" stroke-linecap="round" stroke-linejoin="round"/>
<path d="M58.6667 60V48.75C58.6667 46.7609 57.894 44.8532 56.5188 43.4467C55.1435 42.0402 53.2783 41.25 51.3333 41.25C49.3884 41.25 47.5232 42.0402 46.1479 43.4467C44.7726 44.8532 44 46.7609 44 48.75" stroke="white" stroke-width="2.75" stroke-linecap="round" stroke-linejoin="round"/>
</svg>
