<svg width="128" height="128" viewBox="0 0 128 128" fill="none" xmlns="http://www.w3.org/2000/svg">
<path d="M93.8088 92.1125C94.5938 85.5795 94.3588 84.6205 99.2248 85.6795L100.46 85.7875C104.202 85.9575 109.097 85.1855 111.973 83.8495C118.164 80.9765 121.834 76.1815 115.731 77.4405C101.807 80.3135 100.85 75.5985 100.85 75.5985C115.553 53.7835 121.699 26.0905 116.393 19.3115C101.923 0.822464 76.8758 9.56546 76.4568 9.79146L76.3228 9.81646C73.5718 9.24546 70.4927 8.90446 67.0337 8.84846C60.7327 8.74446 55.9518 10.5005 52.3248 13.2505C52.3248 13.2505 7.64175 -5.15854 9.72075 36.4015C10.1628 45.2425 22.3928 103.299 36.9808 85.7635C42.3128 79.3515 47.4648 73.9295 47.4648 73.9295C50.0228 75.6285 53.0868 76.4965 56.2988 76.1845L56.5478 75.9725C56.4698 76.7685 56.5037 77.5475 56.6468 78.4695C52.8898 82.6685 53.9938 83.4055 46.4808 84.9515C38.8787 86.5175 43.3447 89.3065 46.2598 90.0355C49.7948 90.9195 57.9718 92.1715 63.4978 84.4375L63.2778 85.3195C64.7518 86.4995 64.6528 93.7965 64.8608 99.0095C65.0698 104.223 65.4188 109.088 66.4818 111.957C67.5448 114.825 68.7988 122.213 78.6728 120.097C86.9248 118.333 93.2338 115.788 93.8088 92.1125Z" fill="black"/>
<path d="M75.4575 125.256C71.0905 125.256 68.2465 123.567 66.5195 121.936C63.9125 119.476 62.8785 116.307 62.2605 114.414L61.9935 113.624C60.7495 110.266 60.3275 105.431 60.0775 99.2048C60.0395 98.2698 60.0135 97.3068 59.9845 96.2858C59.9635 95.5388 59.9375 94.6018 59.8995 93.6218C58.3262 94.372 56.6562 94.8997 54.9375 95.1898C51.8585 95.7158 48.5485 95.5458 45.0975 94.6828C42.6625 94.0738 40.1325 92.8118 38.6905 90.8628C34.4875 94.5438 30.4785 94.0448 28.2945 93.3158C24.4415 92.0308 20.9935 88.4198 17.7525 82.2788C15.4435 77.9038 13.2105 72.2038 11.1145 65.3358C7.46453 53.3758 5.14553 40.7788 4.93953 36.6428C4.29153 23.6978 7.77653 14.4398 15.2955 9.12881C27.1565 0.750813 45.1275 5.67781 51.6795 7.91481C56.0815 5.26181 61.2605 3.97081 67.1125 4.06381C70.2555 4.11481 73.2485 4.39081 76.0285 4.88681C78.9285 3.97481 84.6565 2.66581 91.2135 2.74781C103.295 2.89181 113.306 7.59981 120.163 16.3628C125.057 22.6148 122.637 35.7438 120.76 43.0138C118.118 53.2398 113.489 64.1158 107.803 73.5838C109.347 73.5948 111.584 73.4098 114.764 72.7528C121.038 71.4578 122.873 74.8218 123.371 76.3278C125.366 82.3698 116.694 86.9358 113.989 88.1918C110.523 89.8008 104.872 90.7808 100.244 90.5688L100.042 90.5558L98.8255 90.4488L98.7055 91.4628L98.5895 92.4538C98.2785 104.453 96.5645 112.052 93.0375 117.073C89.3405 122.337 84.2025 123.812 79.6765 124.782C78.1325 125.112 76.7295 125.256 75.4575 125.256ZM66.2675 81.5848C69.0865 83.8408 69.3335 88.0858 69.5545 96.0188C69.5825 97.0088 69.6085 97.9458 69.6435 98.8208C69.7495 101.471 69.9985 107.676 70.9705 110.298C71.1075 110.669 71.2305 111.045 71.3605 111.444C72.4435 114.76 72.9865 116.423 77.6695 115.422C81.6005 114.579 83.6215 113.823 85.2035 111.571C87.5025 108.297 88.7885 101.711 89.0245 91.9958L93.8075 92.1118L89.0575 91.5418L89.1975 90.3558C89.6525 86.4458 89.9805 83.6218 92.5935 81.7538C94.6905 80.2558 97.0795 80.4008 98.9825 80.7438C96.8915 79.1638 96.3135 77.3108 96.1595 76.5508L95.7605 74.5858L96.8815 72.9228C103.339 63.3428 108.663 51.5688 111.491 40.6188C114.397 29.3678 113.511 23.3928 112.625 22.2628C100.896 7.27581 80.5565 13.4638 78.4325 14.1658L78.0735 14.3598L76.2735 14.6948L75.3515 14.5038C72.8095 13.9758 69.9855 13.6838 66.9585 13.6348C62.2025 13.5548 58.3655 14.6788 55.2195 17.0658L53.0365 18.7208L50.5035 17.6778C45.0915 15.4648 29.1955 11.0158 20.8075 16.9568C16.1515 20.2548 14.0305 26.7168 14.5025 36.1638C14.6585 39.2828 16.7775 51.0898 20.2735 62.5408C25.1045 78.3658 29.4945 83.6228 31.3275 84.2338C31.6475 84.3418 32.4775 83.6968 33.3035 82.7048C36.7475 78.5762 40.3138 74.5511 43.9975 70.6348L46.7675 67.7198L50.1165 69.9448C51.4665 70.8418 52.9555 71.3508 54.4845 71.4468L62.4715 64.6348L61.3145 76.4428C61.2885 76.7078 61.2755 77.0688 61.3795 77.7388L61.7275 79.9768L60.2175 81.6648L60.0435 81.8608L64.4315 83.8858L66.2675 81.5848Z" fill="black"/>
<path d="M115.732 77.4404C101.807 80.3134 100.85 75.5984 100.85 75.5984C115.553 53.7824 121.699 26.0884 116.395 19.3114C101.925 0.823424 76.8757 9.56642 76.4577 9.79342L76.3227 9.81742C73.5717 9.24642 70.4927 8.90642 67.0317 8.85042C60.7307 8.74742 55.9517 10.5024 52.3247 13.2524C52.3247 13.2524 7.64073 -5.15557 9.71873 36.4034C10.1607 45.2454 22.3907 103.302 36.9787 85.7664C42.3107 79.3544 47.4617 73.9324 47.4617 73.9324C50.0207 75.6314 53.0837 76.4994 56.2947 76.1874L56.5447 75.9754C56.4667 76.7714 56.5027 77.5504 56.6447 78.4724C52.8867 82.6714 53.9907 83.4084 46.4777 84.9544C38.8757 86.5204 43.3417 89.3094 46.2577 90.0384C49.7917 90.9224 57.9697 92.1744 63.4947 84.4404L63.2737 85.3224C64.7467 86.5024 65.7807 92.9944 65.6077 98.8794C65.4337 104.764 65.3177 108.805 66.4787 111.961C67.6387 115.117 68.7947 122.217 78.6707 120.101C86.9227 118.333 91.1987 113.75 91.7947 106.106C92.2167 100.671 93.1717 101.475 93.2327 96.6164L93.9997 94.3164C94.8837 86.9494 94.1397 84.5734 99.2247 85.6784L100.46 85.7864C104.202 85.9564 109.099 85.1844 111.974 83.8484C118.164 80.9774 121.835 76.1814 115.732 77.4404Z" fill="#336791"/>
<path d="M75.9579 122.307C67.7259 122.307 65.1179 115.788 64.0509 113.122C62.4889 109.215 62.1519 94.0526 62.4999 81.6186C62.5051 81.4089 62.5517 81.2023 62.6371 81.0107C62.7224 80.8191 62.8449 80.6463 62.9973 80.5023C63.1497 80.3582 63.3292 80.2457 63.5253 80.1713C63.7214 80.0968 63.9303 80.062 64.1399 80.0686C64.3494 80.0743 64.5556 80.1212 64.7469 80.2067C64.9382 80.2922 65.1108 80.4146 65.2547 80.5668C65.3987 80.719 65.5112 80.8981 65.5859 81.0939C65.6606 81.2896 65.6959 81.4982 65.6899 81.7076C65.2889 96.0486 65.8579 109.045 67.0139 111.937C68.8179 116.446 71.5539 120.39 79.2889 118.733C86.6319 117.158 89.3819 114.374 90.6069 107.273C91.5469 101.824 93.4059 86.3216 93.6349 83.2626C93.6503 83.0536 93.7067 82.8496 93.801 82.6624C93.8952 82.4752 94.0256 82.3084 94.1844 82.1717C94.3433 82.0349 94.5276 81.9309 94.7267 81.8655C94.9258 81.8001 95.1359 81.7747 95.3449 81.7906C95.7667 81.8226 96.1586 82.0206 96.4346 82.3412C96.7106 82.6618 96.8481 83.0787 96.8169 83.5006C96.5779 86.6856 94.7279 102.158 93.7519 107.816C92.3059 116.203 88.5669 120.007 79.9579 121.853C78.4949 122.166 77.1659 122.306 75.9579 122.307ZM31.3219 90.4656C30.6024 90.4632 29.8879 90.345 29.2059 90.1156C23.8589 88.3316 18.7659 79.6236 14.0679 64.2306C10.4919 52.5136 8.22594 40.2836 8.02694 36.3086C7.43794 24.5246 10.4719 16.1876 17.0469 11.5306C30.0539 2.31461 51.9349 11.0906 52.8599 11.4686C53.2518 11.6287 53.564 11.9378 53.7279 12.3281C53.8918 12.7184 53.894 13.1578 53.7339 13.5496C53.5739 13.9415 53.2647 14.2537 52.8745 14.4176C52.4842 14.5815 52.0448 14.5837 51.6529 14.4236C51.4419 14.3376 30.4599 5.93161 18.8849 14.1386C13.2629 18.1246 10.6819 25.5306 11.2129 36.1496C11.3799 39.4986 13.4969 51.4346 17.1189 63.2986C21.3129 77.0406 26.0859 85.7116 30.2149 87.0886C30.8629 87.3046 32.8349 87.9616 35.6539 84.5716C38.9414 80.6234 42.3521 76.7795 45.8809 73.0456C46.1762 72.7511 46.5751 72.5838 46.9921 72.5797C47.4091 72.5755 47.8112 72.7347 48.1123 73.0233C48.4134 73.3119 48.5896 73.7068 48.6032 74.1237C48.6168 74.5405 48.4666 74.9461 48.1849 75.2536C48.1369 75.3036 43.3379 80.3206 38.1079 86.6126C35.6309 89.5916 33.2569 90.4656 31.3219 90.4656ZM100.751 77.0206C100.462 77.0202 100.178 76.9412 99.9301 76.7921C99.6822 76.6429 99.4796 76.4292 99.3438 76.1737C99.208 75.9183 99.1442 75.6308 99.1592 75.3419C99.1742 75.053 99.2674 74.7736 99.4289 74.5336C114.292 52.4786 119.509 25.8296 115.041 20.1196C109.417 12.9336 101.476 9.18061 91.4369 8.96361C84.0039 8.80361 78.0959 10.7016 77.1299 11.0326L76.8869 11.1316C75.9159 11.4366 75.1709 10.9046 74.8899 10.2826C74.7297 9.92624 74.7054 9.52356 74.8217 9.15053C74.9379 8.77749 75.1866 8.45988 75.5209 8.25761C75.5669 8.23061 75.7129 8.16861 75.9499 8.08161L75.9289 8.08761L75.9499 8.08061C77.5909 7.47961 83.5889 5.68061 91.0179 5.76561C102.126 5.88361 111.302 10.1666 117.552 18.1536C120.509 21.9326 120.516 30.6386 117.571 42.0406C114.569 53.6656 108.92 66.1586 102.074 76.3176C101.768 76.7746 101.264 77.0206 100.751 77.0206ZM101.511 87.2306C98.9729 87.2306 96.6979 86.8726 95.3359 86.0566C93.9359 85.2176 93.6689 84.0776 93.6339 83.4726C93.2519 76.7626 96.9539 75.5946 98.8419 75.0616C98.5789 74.6636 98.2049 74.1956 97.8179 73.7126C96.7169 72.3366 95.2089 70.4526 94.0469 67.6346C93.8649 67.1946 93.2949 66.1716 92.6349 64.9866C89.0559 58.5686 81.6089 45.2136 86.3929 38.3746C88.6069 35.2096 93.0159 33.9636 99.5119 34.6586C97.6009 28.8366 88.5009 10.6246 66.9079 10.2706C60.4139 10.1626 55.0879 12.1596 51.0859 16.2006C42.1259 25.2496 42.4499 41.6226 42.4549 41.7866C42.4605 41.9961 42.4247 42.2046 42.3496 42.4002C42.2745 42.5958 42.1617 42.7747 42.0175 42.9267C41.8733 43.0788 41.7005 43.2009 41.5091 43.2861C41.3177 43.3714 41.1114 43.4181 40.9019 43.4236C40.6925 43.4291 40.484 43.3933 40.2884 43.3183C40.0927 43.2432 39.9138 43.1304 39.7618 42.9861C39.6098 42.8419 39.4877 42.6692 39.4024 42.4778C39.3172 42.2864 39.2705 42.0801 39.2649 41.8706C39.2449 41.1436 38.9109 23.9616 48.8189 13.9546C53.4559 9.27161 59.5599 6.95961 66.9609 7.08061C80.7749 7.30761 89.6669 14.3306 94.6929 20.1816C100.172 26.5586 102.858 33.5926 103.079 35.9406C103.244 37.6866 101.991 38.0356 101.738 38.0876L101.162 38.1006C94.7869 37.0796 90.6969 37.7886 89.0059 40.2046C85.3669 45.4056 92.4119 58.0386 95.4199 63.4336C96.1879 64.8096 96.7419 65.8046 96.9959 66.4186C97.9839 68.8146 99.2729 70.4246 100.308 71.7186C101.219 72.8566 102.008 73.8436 102.29 75.0016C102.421 75.2316 104.28 77.9816 115.311 75.7046C118.076 75.1346 119.734 75.6216 120.241 77.1546C121.238 80.1696 115.644 83.6866 112.547 85.1246C109.772 86.4146 105.343 87.2306 101.511 87.2306ZM96.8149 83.2096C97.1649 83.5626 98.9159 84.1716 102.542 84.0156C105.766 83.8776 109.166 83.1766 111.206 82.2296C113.815 81.0176 115.557 79.6626 116.459 78.7376L115.959 78.8296C108.906 80.2856 103.917 80.0916 101.131 78.2526C100.944 78.1289 100.763 77.995 100.591 77.8516C100.289 77.9706 100.01 78.0486 99.8109 78.1046C98.2309 78.5476 96.5969 79.0066 96.8149 83.2096ZM51.2529 92.1246C49.5009 92.1246 47.6569 91.8856 45.7739 91.4146C43.8229 90.9266 40.5339 89.4576 40.5839 87.0446C40.6409 84.3376 44.5779 83.5256 46.0599 83.2206C51.4139 82.1176 51.7629 81.6756 53.4359 79.5506C53.9239 78.9316 54.5309 78.1606 55.3589 77.2366C56.5879 75.8606 57.9309 75.1636 59.3509 75.1636C60.3399 75.1636 61.1509 75.4986 61.6869 75.7216C63.3949 76.4296 64.8199 78.1416 65.4059 80.1886C65.9349 82.0356 65.6819 83.8136 64.6959 85.1946C61.4589 89.7276 56.8099 92.1246 51.2529 92.1246ZM44.0309 87.1816C44.5119 87.5536 45.4759 88.0506 46.5489 88.3186C48.1799 88.7266 49.7619 88.9336 51.2539 88.9336C55.7999 88.9336 59.4499 87.0516 62.1009 83.3396C62.6539 82.5656 62.4879 81.5826 62.3399 81.0656C62.0299 79.9826 61.2599 78.9976 60.4669 78.6686C60.0369 78.4906 59.6799 78.3546 59.3519 78.3546C59.1759 78.3546 58.6399 78.3546 57.7379 79.3636C57.1155 80.0636 56.5172 80.7847 55.9439 81.5256C53.8599 84.1716 52.9049 85.0696 46.7049 86.3466C45.1919 86.6566 44.4159 86.9726 44.0309 87.1816ZM56.2999 79.8216C55.919 79.821 55.5509 79.6842 55.2621 79.4359C54.9732 79.1876 54.7827 78.8441 54.7249 78.4676C54.6853 78.2027 54.6586 77.9361 54.6449 77.6686C50.5809 77.5926 46.6599 75.8486 43.6829 72.7426C39.9189 68.8156 38.2059 63.3746 38.9839 57.8156C39.8289 51.7786 39.5129 46.4496 39.3429 43.5866C39.2959 42.7906 39.2619 42.2156 39.2639 41.8176C39.2669 41.3126 39.2769 39.9736 43.7529 37.7046C45.3449 36.8976 48.5369 35.4896 52.0239 35.1286C57.8009 34.5316 61.6089 37.1046 62.7489 42.3746C65.8259 56.6026 62.9929 62.8956 60.9239 67.4916C60.5389 68.3476 60.1749 69.1556 59.8839 69.9386L59.6269 70.6286C58.5339 73.5596 57.5889 76.0916 57.8789 77.9826C57.9108 78.1897 57.9015 78.4011 57.8516 78.6046C57.8018 78.8081 57.7123 78.9998 57.5883 79.1687C57.4643 79.3376 57.3083 79.4805 57.1291 79.5891C56.9499 79.6977 56.7511 79.7699 56.5439 79.8016L56.2999 79.8216ZM42.4649 42.2596L42.5269 43.3986C42.7029 46.3726 43.0309 51.9066 42.1429 58.2586C41.5019 62.8436 42.9019 67.3186 45.9859 70.5346C48.4229 73.0766 51.6299 74.4796 54.9259 74.4796H54.9939C55.3629 72.9246 55.9759 71.2826 56.6359 69.5136L56.8909 68.8276C57.2199 67.9436 57.6049 67.0876 58.0129 66.1816C60.0039 61.7576 62.4829 56.2506 59.6279 43.0496C59.0629 40.4346 57.6919 38.9216 55.4389 38.4226C50.8109 37.4006 43.9139 40.8816 42.4649 42.2596ZM52.0949 41.5826C52.0149 42.1466 53.1279 43.6526 54.5799 43.8536C56.0289 44.0566 57.2689 42.8786 57.3479 42.3146C57.4269 41.7506 56.3149 41.1286 54.8629 40.9266C53.4119 40.7246 52.1719 41.0186 52.0949 41.5826ZM54.9129 44.4086L54.5059 44.3806C53.6059 44.2556 52.6959 43.6886 52.0729 42.8626C51.8539 42.5726 51.4969 42.0106 51.5679 41.5086C51.6689 40.7726 52.5669 40.3316 53.9679 40.3316C54.2809 40.3316 54.6069 40.3546 54.9349 40.4006C55.7009 40.5066 56.4119 40.7276 56.9369 41.0206C57.8469 41.5286 57.9139 42.0956 57.8729 42.3886C57.7609 43.2016 56.4679 44.4086 54.9129 44.4086ZM52.6239 41.6766C52.6689 42.0246 53.5309 43.1726 54.6529 43.3276L54.9139 43.3456C55.9499 43.3456 56.7239 42.5306 56.8149 42.2636C56.7189 42.0816 56.0529 41.6296 54.7899 41.4536C54.518 41.4146 54.2437 41.3949 53.9689 41.3946C53.1569 41.3946 52.7259 41.5776 52.6239 41.6766ZM96.2289 40.4316C96.3079 40.9956 95.1959 42.5016 93.7449 42.7036C92.2949 42.9056 91.0539 41.7286 90.9739 41.1646C90.8979 40.6006 92.0099 39.9776 93.4599 39.7766C94.9099 39.5736 96.1489 39.8686 96.2289 40.4316ZM93.4099 42.9916C92.0139 42.9916 90.8089 41.9056 90.7099 41.2006C90.5949 40.3546 91.9879 39.7116 93.4219 39.5126C93.7379 39.4686 94.0509 39.4466 94.3519 39.4466C95.5899 39.4466 96.4099 39.8096 96.4919 40.3956C96.5449 40.7746 96.2539 41.3596 95.7529 41.8876C95.4219 42.2346 94.7269 42.8356 93.7799 42.9666L93.4099 42.9916ZM94.3529 39.9786C94.0769 39.9786 93.7889 39.9996 93.4969 40.0396C92.0559 40.2406 91.1959 40.8186 91.2379 41.1286C91.2859 41.4696 92.2059 42.4606 93.4109 42.4606L93.7079 42.4396C94.4949 42.3306 95.0859 41.8166 95.3679 41.5206C95.8109 41.0556 95.9869 40.6176 95.9659 40.4686C95.9379 40.2706 95.4059 39.9786 94.3529 39.9786ZM98.3179 72.8216C98.0289 72.8218 97.7452 72.7433 97.4972 72.5947C97.2493 72.446 97.0465 72.2327 96.9105 71.9776C96.7745 71.7225 96.7104 71.4353 96.7251 71.1465C96.7398 70.8578 96.8327 70.5786 96.9939 70.3386C100.392 65.2636 99.7699 60.0886 99.1689 55.0836C98.9119 52.9516 98.6479 50.7466 98.7159 48.6306C98.7859 46.4536 99.0629 44.6576 99.3299 42.9206C99.6469 40.8626 99.9469 38.9186 99.8229 36.6106C99.8116 36.4014 99.8417 36.192 99.9113 35.9944C99.9809 35.7969 100.089 35.6149 100.229 35.459C100.369 35.3031 100.538 35.1763 100.727 35.0858C100.916 34.9953 101.121 34.9429 101.33 34.9316C101.539 34.9203 101.749 34.9503 101.946 35.02C102.144 35.0896 102.326 35.1974 102.482 35.3374C102.637 35.4773 102.764 35.6466 102.855 35.8355C102.945 36.0245 102.998 36.2294 103.009 36.4386C103.151 39.0766 102.812 41.2766 102.484 43.4056C102.231 45.0486 101.969 46.7476 101.906 48.7326C101.845 50.6066 102.084 52.5966 102.337 54.7026C102.977 60.0246 103.702 66.0566 99.6459 72.1136C99.4999 72.3317 99.3023 72.5105 99.0706 72.634C98.839 72.7575 98.5805 72.8219 98.3179 72.8216Z" fill="white"/>
</svg>
